<svg xmlns="http://www.w3.org/2000/svg" xmlns:xlink="http://www.w3.org/1999/xlink" viewBox="0 0 510.02 111.21"><defs><style>.cls-1{fill:#fff;}.cls-2{fill:#32b766;}.cls-3{fill:#34e45d;}.cls-4{fill:url(#linear-gradient);}</style><linearGradient id="linear-gradient" x1="293.63" y1="10.7" x2="293.63" y2="98.35" gradientUnits="userSpaceOnUse"><stop offset="0" stop-color="#50ff84"/><stop offset="1" stop-color="#32b766"/></linearGradient></defs><g id="Layer_2" data-name="Layer 2"><g id="benui_Logotypes" data-name="benui Logotypes"><g id="V3"><g id="Text_copy_2" data-name="Text copy 2"><path class="cls-1" d="M17.94,35.36a36.12,36.12,0,0,1,16.78-4.25,37.14,37.14,0,0,1,14.76,2.67,32.61,32.61,0,0,1,10.87,7.66q10.18,11.06,10.18,28,0,18.54-11.06,29.89Q48.85,110.2,33,110.21q-13.92,0-22.92-7.25Q0,94.76,0,80.33V.13H17.94Zm0,44.75Q17.94,93,34,93q7.85,0,13.19-6.89t5.42-17.5q0-10.55-5.71-15.89Q41.75,48,33.11,48q-5.2,0-11.5,3.52a28.07,28.07,0,0,0-3.67,2.42Z"/><path class="cls-1" d="M79.16,71.47a42.46,42.46,0,0,1,2.93-15.9,38.86,38.86,0,0,1,8.28-12.82q11.41-11.64,29.88-11.64,15.6,0,25.05,10.33,9.3,10,9.3,25,0,5.78-.88,7.91-7.32,2-29.81,2H98.13A19.27,19.27,0,0,0,107,88.64Q114,93,125.08,93q11.65,0,20-4.18a16,16,0,0,0,3.29-2c-.09,2-.22,4.15-.36,6.3l-.81,11.43q-5.56,3.81-18,5.27a59.61,59.61,0,0,1-7,.44q-18.6,0-30.76-10.84T79.16,71.47Zm56-9.23q-3-15.75-17.14-15.75-11.13,0-16.92,9.59a25.41,25.41,0,0,0-2.71,6.45l4.32.15h5.42c1.81,0,3.54.07,5.2.07h4.18q3.73,0,7.32-.07l6-.22C132.41,62.41,133.85,62.34,135.12,62.24Z"/><path class="cls-1" d="M186,99.74a53.26,53.26,0,0,0,.58,9.37H168.21V32.57H186v6.52q9.66-8,20.65-8,12,0,19.19,8.17T233,60.77V89.92q0,12.38.36,14.87a7.24,7.24,0,0,0,1,3.22c.42.49.77.93,1.06,1.32l-.14.29q-5.94-.51-8.64-.51h-5.13c-1.57,0-3.66.08-6.3.22V69.41q0-21.45-13-21.46-9.66,0-16.18,10Z"/><path class="cls-1" d="M454.48,103.45q-9.37,7.76-20.43,7.76-11.87,0-18.6-8Q409,95.46,409,81.91V52.84q0-14.65-.62-16.81a20.83,20.83,0,0,0-.92-2.75c2.25.2,4.59.29,7,.29h6.08c1.61,0,3.74-.07,6.37-.22V75.76q0,15.09,8.21,17.51a19.41,19.41,0,0,0,5.42.73,17.24,17.24,0,0,0,13.91-6.3V33.57h18.17v67.17a53.26,53.26,0,0,0,.58,9.37H454.48Z"/><path class="cls-1" d="M509.18,101.91a71.09,71.09,0,0,0,.29,8.2h-18.6V33.57h18.31ZM510,17.55a9.5,9.5,0,1,1-9.5-9.5A9.5,9.5,0,0,1,510,17.55Z"/></g><g id="Leaf_Logo_copy_2" data-name="Leaf Logo copy 2"><path id="Outline_BG" data-name="Outline BG" d="M380.71,25.07c-2-.24-4.38-.5-6.83-.6-.69,0-1.34,0-2,0l-1.19,0c-2.5.06-4.81.22-7.07.47A55.69,55.69,0,0,0,350.2,28a37.35,37.35,0,0,0-11.94,7.11,34,34,0,0,0-3.07,3.16A44.22,44.22,0,0,0,310.77,11.2c-7.94-3.46-16.2-4.55-24.18-5.6-7.1-.93-13.8-1.81-18.79-4.29A12.43,12.43,0,0,0,253.16,4a11.8,11.8,0,0,0-3.1,8.93l2.7,34.33c0,.33.07.65.12,1s0,.84.06,1.29v.1A40.49,40.49,0,0,0,266.82,77a38.63,38.63,0,0,0,23.62,11.27l.26,0a45.92,45.92,0,0,0,7,.48c1.22,0,2.45,0,3.67-.12v2.41a17.93,17.93,0,0,0,34.45,7,11.83,11.83,0,0,0,2.31.23,11.64,11.64,0,0,0,1.43-.08h.08c1.92-.26,3.89-.47,5.85-.65,8-.73,14.35-2.38,20.1-5.19a42,42,0,0,0,16.17-13.89,50.89,50.89,0,0,0,8-21.9,99.59,99.59,0,0,0,.84-10.9l0-.5c.17-5.55.27-7.17.31-7.61A11.56,11.56,0,0,0,380.71,25.07Z"/><path id="Small_Leaf" data-name="Small Leaf" class="cls-2" d="M379.5,35.7c-1.87-.21-4-.45-6.06-.54-.86,0-1.65,0-2.43,0-2.19.06-4.21.2-6.17.42A44.49,44.49,0,0,0,354,38a26.54,26.54,0,0,0-8.56,5,23.17,23.17,0,0,0-5.73,8.1,33.42,33.42,0,0,0-2.4,11.57c0,.69,0,1.41,0,2.13V86.7a.93.93,0,0,0,.31.68.9.9,0,0,0,.6.23h.12c2.07-.28,4.18-.51,6.27-.7a45.68,45.68,0,0,0,16.37-4.15,31.19,31.19,0,0,0,12-10.32,40.37,40.37,0,0,0,6.28-17.34,94.71,94.71,0,0,0,.74-9.74v-.49c0-1.59.2-6.44.34-8.18A.91.91,0,0,0,379.5,35.7Z"/><path id="Large_Leaf" data-name="Large Leaf" class="cls-3" d="M326.36,50.5c.08-12.08-7.56-24.16-19.87-29.49C293,15.1,275.81,17.25,263,10.88c-1-.52-2.39.15-2.31,1.16q1.35,17,2.68,34.06c.05.42.1.82.16,1.22s0,1,.05,1.43a29.91,29.91,0,0,0,10.54,20.48,27.79,27.79,0,0,0,18.29,8.5v.06a43.82,43.82,0,0,0,19.65-2V91.12a7.22,7.22,0,1,0,14.44,0V52.07A7.4,7.4,0,0,0,326.36,50.5Z"/><path id="Large_Leaf_Gradient" data-name="Large Leaf Gradient" class="cls-4" d="M326.36,50.5c.08-12.08-7.56-24.16-19.87-29.49C293,15.1,275.81,17.25,263,10.88c-1-.52-2.39.15-2.31,1.16q1.35,17,2.68,34.06c.05.42.1.82.16,1.22s0,1,.05,1.43a29.91,29.91,0,0,0,10.54,20.48,27.79,27.79,0,0,0,18.29,8.5v.06a43.82,43.82,0,0,0,19.65-2V91.12a7.22,7.22,0,1,0,14.44,0V52.07A7.4,7.4,0,0,0,326.36,50.5Z"/></g></g></g></g></svg>