<svg xmlns="http://www.w3.org/2000/svg" xmlns:xlink="http://www.w3.org/1999/xlink" viewBox="0 0 263.53 203.81"><defs><style>.cls-1{fill:#32b766;}.cls-2{fill:#34e45d;}.cls-3{fill:url(#linear-gradient);}</style><linearGradient id="linear-gradient" x1="81.5" y1="20" x2="81.5" y2="183.81" gradientUnits="userSpaceOnUse"><stop offset="0" stop-color="#50ff84"/><stop offset="1" stop-color="#32b766"/></linearGradient></defs><g id="Layer_2" data-name="Layer 2"><g id="New_benui_logo_" data-name="New benui logo!"><path id="Outline_BG" data-name="Outline BG" d="M244.25,46.85c-3.83-.44-8.17-.93-12.76-1.11-1.29-.06-2.49-.08-3.69-.08-.75,0-1.5,0-2.22,0-4.67.13-9,.42-13.21.89a104.07,104.07,0,0,0-25.13,5.77,69.82,69.82,0,0,0-22.33,13.29,60.3,60.3,0,0,0-5.72,5.91,82.68,82.68,0,0,0-45.65-50.62c-14.84-6.47-30.27-8.5-45.19-10.46-13.26-1.74-25.79-3.39-35.11-8A23.27,23.27,0,0,0,5.87,7.38,22.09,22.09,0,0,0,.07,24.07L5.12,88.23c.07.62.14,1.23.22,1.83,0,.78.06,1.58.12,2.42v.18A75.64,75.64,0,0,0,31.4,144a72.19,72.19,0,0,0,44.15,21.07l.49.08a86.08,86.08,0,0,0,13.09.89q3.44,0,6.87-.22v4.51a33.5,33.5,0,0,0,64.37,13,21.64,21.64,0,0,0,4.33.44,22.4,22.4,0,0,0,2.67-.17l.15,0c3.58-.47,7.27-.87,10.94-1.21,14.87-1.35,26.81-4.44,37.56-9.7a78.43,78.43,0,0,0,30.21-26c7.75-11.32,12.82-25.09,15-40.93a191.54,191.54,0,0,0,1.57-20.37l0-.94c.32-10.37.51-13.41.58-14.22A21.62,21.62,0,0,0,244.25,46.85Z"/><path id="Small_Leaf" data-name="Small Leaf" class="cls-1" d="M242,66.72c-3.49-.4-7.45-.85-11.32-1-1.61-.07-3.1-.08-4.56,0-4.09.11-7.86.37-11.51.78a84.1,84.1,0,0,0-20.33,4.61,50,50,0,0,0-16,9.44,43,43,0,0,0-10.71,15.15,62.2,62.2,0,0,0-4.49,21.62c-.06,1.29-.09,2.63-.09,4V162a1.71,1.71,0,0,0,.58,1.29,1.67,1.67,0,0,0,1.12.43l.23,0c3.86-.5,7.81-.94,11.72-1.3,12.36-1.12,22.08-3.59,30.58-7.75a58.3,58.3,0,0,0,22.5-19.28c6-8.75,9.94-19.66,11.74-32.42a172.2,172.2,0,0,0,1.38-18.2l0-.92c.09-3,.37-12,.64-15.29A1.71,1.71,0,0,0,242,66.72Z"/><path id="Large_Leaf" data-name="Large Leaf" class="cls-2" d="M142.67,94.39c.15-22.58-14.12-45.16-37.13-55.13-25.3-11-57.34-7-81.23-18.92-1.94-1-4.45.28-4.3,2.16l5,63.66c.08.78.18,1.54.29,2.28s0,1.77.1,2.66A55.87,55.87,0,0,0,45.1,129.38a51.85,51.85,0,0,0,34.19,15.9v.11a81.85,81.85,0,0,0,36.71-3.8v28.72a13.5,13.5,0,0,0,27,0v-73A13.33,13.33,0,0,0,142.67,94.39Z"/><path id="Large_Leaf_Gradient" data-name="Large Leaf Gradient" class="cls-3" d="M142.67,94.39c.15-22.58-14.12-45.16-37.13-55.13-25.3-11-57.34-7-81.23-18.92-1.94-1-4.45.28-4.3,2.16l5,63.66c.08.78.18,1.54.29,2.28s0,1.77.1,2.66A55.87,55.87,0,0,0,45.1,129.38a51.85,51.85,0,0,0,34.19,15.9v.11a81.85,81.85,0,0,0,36.71-3.8v28.72a13.5,13.5,0,0,0,27,0v-73A13.33,13.33,0,0,0,142.67,94.39Z"/></g></g></svg>