<svg xmlns="http://www.w3.org/2000/svg" viewBox="0 0 448 512"><!--!Font Awesome Free 6.5.1 by @fontawesome - https://fontawesome.com License - https://fontawesome.com/license/free Copyright 2024 Fonticons, Inc.--><path d="M433.9 65.9l-51.9-51.9A48 48 0 0 0 348.1 0H176c-26.5 0-48 21.5-48 48v48H48c-26.5 0-48 21.5-48 48v320c0 26.5 21.5 48 48 48h224c26.5 0 48-21.5 48-48v-48h80c26.5 0 48-21.5 48-48V99.9a48 48 0 0 0 -14.1-33.9zM266 464H54a6 6 0 0 1 -6-6V150a6 6 0 0 1 6-6h74v224c0 26.5 21.5 48 48 48h96v42a6 6 0 0 1 -6 6zm128-96H182a6 6 0 0 1 -6-6V54a6 6 0 0 1 6-6h106v88c0 13.3 10.7 24 24 24h88v202a6 6 0 0 1 -6 6zm6-256h-64V48h9.6c1.6 0 3.1 .6 4.2 1.8l48.4 48.4a6 6 0 0 1 1.8 4.2V112z"/></svg>
