<?xml version="1.0" encoding="UTF-8" standalone="no"?>
<!DOCTYPE svg PUBLIC "-//W3C//DTD SVG 1.1//EN" "http://www.w3.org/Graphics/SVG/1.1/DTD/svg11.dtd">
<svg width="100%" height="100%" viewBox="0 0 1756 228" version="1.1" xmlns="http://www.w3.org/2000/svg" xmlns:xlink="http://www.w3.org/1999/xlink" xml:space="preserve" xmlns:serif="http://www.serif.com/" style="fill-rule:evenodd;clip-rule:evenodd;stroke-linejoin:round;stroke-miterlimit:2;">
    <g transform="matrix(1,0,0,1,-299.964,-904.006)">
        <g id="fredoka" transform="matrix(1,0,0,1,24,491)">
            <g transform="matrix(0.374985,0,0,0.374985,1171.44,267.004)">
                <g transform="matrix(601.696,0,0,601.696,2316.74,857)">
                </g>
                <text x="280px" y="857px" style="font-family:'FredokaOne-Regular', 'Fredoka One';font-size:601.696px;fill:white;stroke:white;stroke-width:2.67px;">gar<tspan x="1247.53px " y="857px ">d</tspan>en</text>
            </g>
            <g transform="matrix(0.374985,0,0,0.374985,162.443,267.004)">
                <g transform="matrix(601.696,0,0,601.696,2166.32,857)">
                </g>
                <text x="280px" y="857px" style="font-family:'FredokaOne-Regular', 'Fredoka One';font-size:601.696px;fill:white;stroke:white;stroke-width:2.67px;">unr<tspan x="1266.18px " y="857px ">e</tspan>al</text>
            </g>
            <g transform="matrix(1,0,0,1,1124.23,527.222)">
                <g transform="matrix(1,0,0,1,-131.765,-101.905)">
                    <clipPath id="_clip1">
                        <rect x="0" y="0" width="263.53" height="203.81"/>
                    </clipPath>
                    <g clip-path="url(#_clip1)">
                        <g id="Layer_2">
                            <g id="New_benui_logo_">
                                <path id="Outline_BG" d="M244.25,46.85C240.42,46.41 236.08,45.92 231.49,45.74C230.2,45.68 229,45.66 227.8,45.66L225.58,45.66C220.91,45.79 216.58,46.08 212.37,46.55C203.787,47.424 195.345,49.362 187.24,52.32C179.031,55.314 171.456,59.822 164.91,65.61C162.871,67.448 160.96,69.422 159.19,71.52C151.964,48.879 135.316,30.419 113.54,20.9C98.7,14.43 83.27,12.4 68.35,10.44C55.09,8.7 42.56,7.05 33.24,2.44C24.054,-2.133 12.877,-0.116 5.87,7.38C1.701,11.892 -0.402,17.945 0.07,24.07L5.12,88.23C5.19,88.85 5.26,89.46 5.34,90.06C5.34,90.84 5.4,91.64 5.46,92.48L5.46,92.66C7.008,112.514 16.335,130.975 31.4,144C43.213,155.945 58.833,163.399 75.55,165.07L76.04,165.15C80.374,165.779 84.75,166.077 89.13,166.04C91.423,166.04 93.713,165.967 96,165.82L96,170.33C96.006,188.703 111.127,203.819 129.5,203.819C142.947,203.819 155.147,195.722 160.37,183.33C161.795,183.622 163.246,183.769 164.7,183.77C165.593,183.767 166.484,183.71 167.37,183.6L167.52,183.6C171.1,183.13 174.79,182.73 178.46,182.39C193.33,181.04 205.27,177.95 216.02,172.69C228.16,166.77 238.567,157.813 246.23,146.69C253.98,135.37 259.05,121.6 261.23,105.76C262.115,99.003 262.639,92.203 262.8,85.39L262.8,84.45C263.12,74.08 263.31,71.04 263.38,70.23C264.402,58.609 255.843,48.149 244.25,46.85Z" style="fill-rule:nonzero;"/>
                                <path id="Small_Leaf" d="M242,66.72C238.51,66.32 234.55,65.87 230.68,65.72C229.07,65.65 227.58,65.64 226.12,65.72C222.03,65.83 218.26,66.09 214.61,66.5C207.668,67.188 200.839,68.736 194.28,71.11C188.404,73.23 182.977,76.432 178.28,80.55C173.65,84.76 169.995,89.931 167.57,95.7C164.796,102.581 163.275,109.903 163.08,117.32C163.02,118.61 162.99,119.95 162.99,121.32L162.99,162C162.988,162.493 163.2,162.964 163.57,163.29C163.877,163.567 164.276,163.72 164.69,163.72L164.92,163.72C168.78,163.22 172.73,162.78 176.64,162.42C189,161.3 198.72,158.83 207.22,154.67C216.255,150.289 224.006,143.647 229.72,135.39C235.72,126.64 239.66,115.73 241.46,102.97C242.241,96.932 242.702,90.857 242.84,84.77L242.84,83.85C242.93,80.85 243.21,71.85 243.48,68.56C243.557,67.655 242.9,66.839 242,66.72Z" style="fill:rgb(50,183,102);fill-rule:nonzero;"/>
                                <path id="Large_Leaf" d="M142.67,94.39C142.82,71.81 128.55,49.23 105.54,39.26C80.24,28.26 48.2,32.26 24.31,20.34C22.37,19.34 19.86,20.62 20.01,22.5L25.01,86.16C25.09,86.94 25.19,87.7 25.3,88.44C25.41,89.18 25.3,90.21 25.4,91.1C26.589,105.973 33.688,119.768 45.1,129.38C54.095,138.78 66.306,144.459 79.29,145.28L79.29,145.39C91.656,146.935 104.213,145.635 116,141.59L116,170.31C116,177.716 122.094,183.81 129.5,183.81C136.906,183.81 143,177.716 143,170.31L143,97.31C142.998,96.327 142.887,95.348 142.67,94.39Z" style="fill:rgb(52,228,93);fill-rule:nonzero;"/>
                                <path id="Large_Leaf_Gradient" d="M142.67,94.39C142.82,71.81 128.55,49.23 105.54,39.26C80.24,28.26 48.2,32.26 24.31,20.34C22.37,19.34 19.86,20.62 20.01,22.5L25.01,86.16C25.09,86.94 25.19,87.7 25.3,88.44C25.41,89.18 25.3,90.21 25.4,91.1C26.589,105.973 33.688,119.768 45.1,129.38C54.095,138.78 66.306,144.459 79.29,145.28L79.29,145.39C91.656,146.935 104.213,145.635 116,141.59L116,170.31C116,177.716 122.094,183.81 129.5,183.81C136.906,183.81 143,177.716 143,170.31L143,97.31C142.998,96.327 142.887,95.348 142.67,94.39Z" style="fill:url(#_Linear2);fill-rule:nonzero;"/>
                            </g>
                        </g>
                    </g>
                </g>
            </g>
        </g>
    </g>
    <defs>
        <linearGradient id="_Linear2" x1="0" y1="0" x2="1" y2="0" gradientUnits="userSpaceOnUse" gradientTransform="matrix(1.00305e-14,163.81,-163.81,1.00305e-14,81.5,20)"><stop offset="0" style="stop-color:rgb(80,255,132);stop-opacity:1"/><stop offset="1" style="stop-color:rgb(50,183,102);stop-opacity:1"/></linearGradient>
    </defs>
</svg>
