<?xml version="1.0" encoding="UTF-8" standalone="no"?>
<!DOCTYPE svg PUBLIC "-//W3C//DTD SVG 1.1//EN" "http://www.w3.org/Graphics/SVG/1.1/DTD/svg11.dtd">
<svg width="100%" height="100%" viewBox="0 0 1756 228" version="1.1" xmlns="http://www.w3.org/2000/svg" xmlns:xlink="http://www.w3.org/1999/xlink" xml:space="preserve" xmlns:serif="http://www.serif.com/" style="fill-rule:evenodd;clip-rule:evenodd;stroke-linejoin:round;stroke-miterlimit:2;">
    <g id="fredoka" transform="matrix(1,0,0,1,-275.964,-413.006)">
        <g>
            <g transform="matrix(0.374985,0,0,0.374985,1171.44,267.004)">
                <g transform="matrix(1,0,0,1,280,857)">
                    <path d="M225.034,-39.712C209.791,-19.655 185.523,-9.627 152.229,-9.627C118.935,-9.627 87.747,-24.97 58.665,-55.657C29.583,-86.343 15.042,-122.144 15.042,-163.06C15.042,-203.975 29.684,-239.876 58.966,-270.763C88.249,-301.65 120.339,-317.094 155.238,-317.094C168.876,-317.094 181.311,-314.587 192.543,-309.573C203.774,-304.558 211.496,-299.945 215.708,-295.734C219.92,-291.522 223.229,-287.611 225.636,-284.001C226.839,-295.232 230.951,-303.756 237.971,-309.573C244.991,-315.389 256.322,-318.297 271.967,-318.297C287.611,-318.297 299.043,-317.094 306.263,-314.687C313.484,-312.28 318.598,-308.169 321.607,-302.352C324.615,-296.536 326.42,-291.421 327.022,-287.009C327.623,-282.597 327.924,-275.777 327.924,-266.551L327.924,-17.449C327.924,28.681 311.879,65.886 279.789,94.165C247.698,122.445 211.596,136.585 171.483,136.585C140.997,136.585 111.915,129.164 84.237,114.322C56.559,99.48 42.72,86.043 42.72,74.009C42.72,58.365 48.737,44.526 60.771,32.492C68.393,24.068 74.309,18.251 78.521,15.042C82.733,11.833 87.647,10.229 93.263,10.229C98.879,10.229 104.695,12.636 110.712,17.449C129.966,32.291 150.825,39.712 173.288,39.712C188.531,39.712 200.966,33.695 210.594,21.661C220.221,9.627 225.034,-4.814 225.034,-21.661L225.034,-39.712ZM117.932,-162.759C117.932,-149.722 123.047,-137.989 133.276,-127.56C143.504,-117.13 155.94,-111.915 170.581,-111.915C185.222,-111.915 197.356,-117.23 206.983,-127.86C216.611,-138.49 221.424,-150.123 221.424,-162.759C221.424,-175.394 216.811,-187.228 207.585,-198.259C198.359,-209.29 185.924,-214.805 170.28,-214.805C154.636,-214.805 142,-209.39 132.373,-198.56C122.746,-187.729 117.932,-175.796 117.932,-162.759Z" style="fill:white;fill-rule:nonzero;stroke:white;stroke-width:2.67px;"/>
                </g>
                <g transform="matrix(1,0,0,1,280,857)">
                    <path d="M581.84,-283.399C584.247,-305.862 600.091,-317.094 629.374,-317.094C645.018,-317.094 656.651,-315.89 664.272,-313.484C671.894,-311.077 677.209,-306.865 680.217,-300.848C683.226,-294.831 685.031,-289.516 685.633,-284.903C686.234,-280.29 686.535,-273.371 686.535,-264.145L686.535,-53.551C686.535,-44.325 686.234,-37.405 685.633,-32.792C685.031,-28.179 683.326,-22.864 680.518,-16.847C674.902,-6.418 661.164,-1.203 639.302,-1.203C617.44,-1.203 602.799,-3.911 595.378,-9.326C587.957,-14.742 583.645,-22.664 582.442,-33.093C567.6,-11.833 542.83,-1.203 508.132,-1.203C473.434,-1.203 441.244,-17.048 411.56,-48.737C381.876,-80.427 367.035,-117.23 367.035,-159.149C367.035,-201.067 381.977,-237.77 411.861,-269.259C441.745,-300.748 474.538,-316.492 510.238,-316.492C523.877,-316.492 536.312,-314.085 547.543,-309.272C558.775,-304.458 566.597,-299.945 571.01,-295.734C575.422,-291.522 579.032,-287.41 581.84,-283.399ZM472.331,-158.246C472.331,-145.009 477.546,-133.075 487.975,-122.445C498.405,-111.815 511.04,-106.5 525.882,-106.5C540.724,-106.5 553.059,-111.915 562.887,-122.746C572.714,-133.577 577.628,-145.51 577.628,-158.547C577.628,-171.584 572.915,-183.718 563.488,-194.95C554.062,-206.181 541.426,-211.797 525.581,-211.797C509.737,-211.797 496.901,-206.181 487.073,-194.95C477.245,-183.718 472.331,-171.483 472.331,-158.246Z" style="fill:white;fill-rule:nonzero;stroke:white;stroke-width:2.67px;"/>
                </g>
                <g transform="matrix(1,0,0,1,280,857)">
                    <path d="M950.078,-313.484C957.699,-311.077 964.017,-306.965 969.031,-301.149C974.046,-295.332 976.553,-286.006 976.553,-273.17C976.553,-260.334 972.742,-246.294 965.12,-231.051C957.499,-215.808 946.468,-208.187 932.027,-208.187C924.807,-208.187 917.887,-209.791 911.269,-213C904.65,-216.209 895.925,-217.814 885.095,-217.814C874.264,-217.814 864.136,-214.003 854.709,-206.382C845.283,-198.76 840.569,-189.534 840.569,-178.704L840.569,-52.348C840.569,-43.122 840.268,-36.202 839.667,-31.589C839.065,-26.976 837.16,-21.661 833.951,-15.644C827.934,-5.215 812.29,0 787.018,0C767.764,0 753.925,-3.41 745.501,-10.229C739.083,-15.845 735.473,-24.469 734.671,-36.102L734.671,-264.746C734.671,-273.972 734.972,-280.892 735.573,-285.505C736.175,-290.118 737.88,-295.232 740.688,-300.848C746.304,-311.679 761.948,-317.094 787.62,-317.094C811.688,-317.094 826.73,-312.481 832.747,-303.255C837.16,-296.837 839.366,-290.218 839.366,-283.399C841.372,-286.207 844.28,-289.616 848.091,-293.628C851.901,-297.639 860.024,-303.054 872.459,-309.873C884.894,-316.693 895.825,-320.102 905.252,-320.102C914.678,-320.102 922.601,-319.601 929.019,-318.598C935.437,-317.595 942.457,-315.89 950.078,-313.484Z" style="fill:white;fill-rule:nonzero;stroke:white;stroke-width:2.67px;"/>
                </g>
                <g transform="matrix(1,0,0,1,1247.53,857)">
                    <path d="M236.767,-449.166C239.776,-454.982 245.091,-459.094 252.712,-461.501C260.334,-463.908 270.462,-465.111 283.098,-465.111C295.734,-465.111 305.862,-463.908 313.484,-461.501C321.105,-459.094 326.42,-454.882 329.429,-448.865C332.437,-442.848 334.242,-437.533 334.844,-432.92C335.446,-428.307 335.746,-421.388 335.746,-412.162L335.746,-52.949C335.746,-43.723 335.446,-36.804 334.844,-32.191C334.242,-27.578 332.337,-22.463 329.128,-16.847C323.111,-6.017 306.163,-0.602 278.284,-0.602C250.406,-0.602 234.862,-10.429 231.653,-30.085C214.805,-10.831 191.339,-1.203 161.255,-1.203C125.153,-1.203 92.26,-16.948 62.576,-48.437C32.893,-79.925 18.051,-116.629 18.051,-158.547C18.051,-200.465 32.993,-237.269 62.877,-268.958C92.761,-300.647 125.554,-316.492 161.255,-316.492C190.938,-316.492 214.003,-306.464 230.45,-286.407L230.45,-412.763C230.45,-421.989 230.75,-428.909 231.352,-433.522C231.954,-438.135 233.759,-443.35 236.767,-449.166ZM138.992,-122.144C149.421,-111.314 162.057,-105.898 176.899,-105.898C191.74,-105.898 204.075,-111.314 213.903,-122.144C223.731,-132.975 228.644,-144.908 228.644,-157.945C228.644,-170.982 223.931,-183.116 214.505,-194.348C205.078,-205.579 192.342,-211.195 176.297,-211.195C160.252,-211.195 147.416,-205.68 137.788,-194.649C128.161,-183.618 123.348,-171.483 123.348,-158.246C123.348,-145.009 128.562,-132.975 138.992,-122.144Z" style="fill:white;fill-rule:nonzero;stroke:white;stroke-width:2.67px;"/>
                </g>
                <g transform="matrix(1,0,0,1,1247.53,857)">
                    <path d="M689.544,-196.454C689.544,-171.784 683.426,-153.533 671.192,-141.699C658.957,-129.866 645.419,-123.949 630.577,-123.949L487.975,-123.949C487.975,-112.718 494.594,-103.291 507.831,-95.67C521.069,-88.048 534.306,-84.237 547.543,-84.237C570.809,-84.237 589.06,-86.644 602.298,-91.458L608.916,-93.865C618.543,-98.277 626.566,-100.483 632.984,-100.483C645.82,-100.483 656.851,-91.458 666.077,-73.407C671.292,-62.576 673.9,-53.35 673.9,-45.729C673.9,-10.028 631.179,7.822 545.738,7.822C516.055,7.822 489.68,2.708 466.615,-7.521C443.55,-17.75 425.6,-31.288 412.763,-48.136C387.492,-80.627 374.857,-116.93 374.857,-157.043C374.857,-207.585 391.203,-247.999 423.895,-278.284C456.587,-308.57 497.402,-323.712 546.34,-323.712C602.097,-323.712 643.012,-304.057 669.086,-264.746C682.724,-243.887 689.544,-221.123 689.544,-196.454ZM562.586,-178.704C577.829,-178.704 585.45,-185.122 585.45,-197.958C585.45,-207.184 581.94,-214.605 574.921,-220.221C567.901,-225.837 557.872,-228.644 544.836,-228.644C531.799,-228.644 518.863,-223.329 506.026,-212.7C493.19,-202.07 486.772,-190.738 486.772,-178.704L562.586,-178.704Z" style="fill:white;fill-rule:nonzero;stroke:white;stroke-width:2.67px;"/>
                </g>
                <g transform="matrix(1,0,0,1,1247.53,857)">
                    <path d="M904.951,-317.094C945.064,-317.094 978.458,-301.751 1005.13,-271.064C1031.81,-240.378 1045.15,-202.972 1045.15,-158.848L1045.15,-52.949C1045.15,-43.723 1044.85,-36.804 1044.24,-32.191C1043.64,-27.578 1041.94,-22.463 1039.13,-16.847C1033.51,-6.017 1017.87,-0.602 992.197,-0.602C963.716,-0.602 947.27,-8.023 942.858,-22.864C940.451,-29.684 939.247,-39.913 939.247,-53.551L939.247,-159.449C939.247,-175.896 934.534,-188.732 925.108,-197.958C915.681,-207.184 903.045,-211.797 887.201,-211.797C871.356,-211.797 858.52,-206.983 848.692,-197.356C838.865,-187.729 833.951,-175.094 833.951,-159.449L833.951,-52.949C833.951,-43.723 833.65,-36.804 833.048,-32.191C832.446,-27.578 830.541,-22.463 827.332,-16.847C822.117,-6.017 806.674,-0.602 781.001,-0.602C755.73,-0.602 740.287,-6.017 734.671,-16.847C731.863,-22.864 730.158,-28.179 729.556,-32.792C728.955,-37.405 728.654,-44.325 728.654,-53.551L728.654,-266.551C728.654,-275.376 728.955,-282.095 729.556,-286.708C730.158,-291.321 732.063,-296.436 735.273,-302.051C740.888,-312.08 756.332,-317.094 781.603,-317.094C806.072,-317.094 821.114,-312.481 826.73,-303.255C830.742,-296.436 832.747,-288.212 832.747,-278.585C834.352,-281.393 837.962,-285.404 843.578,-290.619C849.194,-295.834 854.609,-300.046 859.824,-303.255C873.462,-312.481 888.504,-317.094 904.951,-317.094Z" style="fill:white;fill-rule:nonzero;stroke:white;stroke-width:2.67px;"/>
                </g>
            </g>
            <g transform="matrix(0.374985,0,0,0.374985,162.443,267.004)">
                <g transform="matrix(1,0,0,1,280,857)">
                    <path d="M164.865,-1.203C124.351,-1.203 90.756,-16.547 64.081,-47.233C37.405,-77.92 24.068,-115.325 24.068,-159.449L24.068,-264.746C24.068,-274.373 24.369,-281.393 24.97,-285.806C25.572,-290.218 27.277,-295.433 30.085,-301.45C35.701,-312.28 51.345,-317.695 77.017,-317.695C105.096,-317.695 121.543,-310.074 126.356,-294.831C128.763,-288.413 129.966,-278.184 129.966,-264.145L129.966,-158.848C129.966,-142.401 134.68,-129.565 144.106,-120.339C153.533,-111.113 166.168,-106.5 182.013,-106.5C197.858,-106.5 210.694,-111.314 220.522,-120.941C230.349,-130.568 235.263,-143.204 235.263,-158.848L235.263,-265.348C235.263,-274.574 235.564,-281.493 236.166,-286.106C236.767,-290.719 238.673,-296.034 241.882,-302.051C247.096,-312.481 262.54,-317.695 288.212,-317.695C313.484,-317.695 328.927,-312.28 334.543,-301.45C337.351,-295.433 339.056,-290.118 339.657,-285.505C340.259,-280.892 340.56,-273.972 340.56,-264.746L340.56,-51.746C340.56,-42.921 340.259,-36.202 339.657,-31.589C339.056,-26.976 337.15,-21.862 333.941,-16.246C327.924,-5.816 312.481,-0.602 287.611,-0.602C263.142,-0.602 248.099,-5.415 242.483,-15.042C238.472,-21.862 236.467,-30.085 236.467,-39.712C234.862,-36.904 231.252,-32.893 225.636,-27.678C220.02,-22.463 214.605,-18.051 209.39,-14.441C195.752,-5.616 180.91,-1.203 164.865,-1.203Z" style="fill:white;fill-rule:nonzero;stroke:white;stroke-width:2.67px;"/>
                </g>
                <g transform="matrix(1,0,0,1,280,857)">
                    <path d="M564.993,-317.094C605.106,-317.094 638.5,-301.751 665.175,-271.064C691.85,-240.378 705.188,-202.972 705.188,-158.848L705.188,-52.949C705.188,-43.723 704.887,-36.804 704.285,-32.191C703.683,-27.578 701.979,-22.463 699.171,-16.847C693.555,-6.017 677.911,-0.602 652.238,-0.602C623.758,-0.602 607.312,-8.023 602.899,-22.864C600.493,-29.684 599.289,-39.913 599.289,-53.551L599.289,-159.449C599.289,-175.896 594.576,-188.732 585.149,-197.958C575.723,-207.184 563.087,-211.797 547.243,-211.797C531.398,-211.797 518.562,-206.983 508.734,-197.356C498.906,-187.729 493.992,-175.094 493.992,-159.449L493.992,-52.949C493.992,-43.723 493.692,-36.804 493.09,-32.191C492.488,-27.578 490.583,-22.463 487.374,-16.847C482.159,-6.017 466.716,-0.602 441.043,-0.602C415.772,-0.602 400.328,-6.017 394.713,-16.847C391.905,-22.864 390.2,-28.179 389.598,-32.792C388.996,-37.405 388.696,-44.325 388.696,-53.551L388.696,-266.551C388.696,-275.376 388.996,-282.095 389.598,-286.708C390.2,-291.321 392.105,-296.436 395.314,-302.051C400.93,-312.08 416.374,-317.094 441.645,-317.094C466.114,-317.094 481.156,-312.481 486.772,-303.255C490.783,-296.436 492.789,-288.212 492.789,-278.585C494.394,-281.393 498.004,-285.404 503.62,-290.619C509.235,-295.834 514.651,-300.046 519.865,-303.255C533.504,-312.481 548.546,-317.094 564.993,-317.094Z" style="fill:white;fill-rule:nonzero;stroke:white;stroke-width:2.67px;"/>
                </g>
                <g transform="matrix(1,0,0,1,280,857)">
                    <path d="M968.731,-313.484C976.352,-311.077 982.67,-306.965 987.684,-301.149C992.698,-295.332 995.205,-286.006 995.205,-273.17C995.205,-260.334 991.394,-246.294 983.773,-231.051C976.151,-215.808 965.12,-208.187 950.68,-208.187C943.459,-208.187 936.54,-209.791 929.921,-213C923.303,-216.209 914.578,-217.814 903.747,-217.814C892.917,-217.814 882.788,-214.003 873.362,-206.382C863.935,-198.76 859.222,-189.534 859.222,-178.704L859.222,-52.348C859.222,-43.122 858.921,-36.202 858.319,-31.589C857.718,-26.976 855.812,-21.661 852.603,-15.644C846.586,-5.215 830.942,0 805.671,0C786.417,0 772.578,-3.41 764.154,-10.229C757.736,-15.845 754.126,-24.469 753.323,-36.102L753.323,-264.746C753.323,-273.972 753.624,-280.892 754.226,-285.505C754.828,-290.118 756.532,-295.232 759.34,-300.848C764.956,-311.679 780.6,-317.094 806.273,-317.094C830.34,-317.094 845.383,-312.481 851.4,-303.255C855.812,-296.837 858.018,-290.218 858.018,-283.399C860.024,-286.207 862.932,-289.616 866.743,-293.628C870.554,-297.639 878.677,-303.054 891.112,-309.873C903.547,-316.693 914.478,-320.102 923.904,-320.102C933.331,-320.102 941.253,-319.601 947.671,-318.598C954.089,-317.595 961.109,-315.89 968.731,-313.484Z" style="fill:white;fill-rule:nonzero;stroke:white;stroke-width:2.67px;"/>
                </g>
                <g transform="matrix(1,0,0,1,1266.18,857)">
                    <path d="M329.729,-196.454C329.729,-171.784 323.612,-153.533 311.378,-141.699C299.143,-129.866 285.605,-123.949 270.763,-123.949L128.161,-123.949C128.161,-112.718 134.78,-103.291 148.017,-95.67C161.255,-88.048 174.492,-84.237 187.729,-84.237C210.995,-84.237 229.246,-86.644 242.483,-91.458L249.102,-93.865C258.729,-98.277 266.752,-100.483 273.17,-100.483C286.006,-100.483 297.037,-91.458 306.263,-73.407C311.478,-62.576 314.085,-53.35 314.085,-45.729C314.085,-10.028 271.365,7.822 185.924,7.822C156.24,7.822 129.866,2.708 106.801,-7.521C83.736,-17.75 65.785,-31.288 52.949,-48.136C27.678,-80.627 15.042,-116.93 15.042,-157.043C15.042,-207.585 31.388,-247.999 64.081,-278.284C96.773,-308.57 137.588,-323.712 186.526,-323.712C242.283,-323.712 283.198,-304.057 309.272,-264.746C322.91,-243.887 329.729,-221.123 329.729,-196.454ZM202.772,-178.704C218.015,-178.704 225.636,-185.122 225.636,-197.958C225.636,-207.184 222.126,-214.605 215.106,-220.221C208.087,-225.837 198.058,-228.644 185.022,-228.644C171.985,-228.644 159.048,-223.329 146.212,-212.7C133.376,-202.07 126.958,-190.738 126.958,-178.704L202.772,-178.704Z" style="fill:white;fill-rule:nonzero;stroke:white;stroke-width:2.67px;"/>
                </g>
                <g transform="matrix(1,0,0,1,1266.18,857)">
                    <path d="M574.62,-283.399C577.026,-305.862 592.871,-317.094 622.154,-317.094C637.798,-317.094 649.431,-315.89 657.052,-313.484C664.674,-311.077 669.988,-306.865 672.997,-300.848C676.005,-294.831 677.811,-289.516 678.412,-284.903C679.014,-280.29 679.315,-273.371 679.315,-264.145L679.315,-53.551C679.315,-44.325 679.014,-37.405 678.412,-32.792C677.811,-28.179 676.106,-22.864 673.298,-16.847C667.682,-6.418 653.943,-1.203 632.082,-1.203C610.22,-1.203 595.579,-3.911 588.158,-9.326C580.737,-14.742 576.425,-22.664 575.221,-33.093C560.38,-11.833 535.61,-1.203 500.912,-1.203C466.214,-1.203 434.023,-17.048 404.34,-48.737C374.656,-80.427 359.814,-117.23 359.814,-159.149C359.814,-201.067 374.756,-237.77 404.641,-269.259C434.525,-300.748 467.317,-316.492 503.018,-316.492C516.656,-316.492 529.091,-314.085 540.323,-309.272C551.555,-304.458 559.377,-299.945 563.789,-295.734C568.202,-291.522 571.812,-287.41 574.62,-283.399ZM465.111,-158.246C465.111,-145.009 470.326,-133.075 480.755,-122.445C491.185,-111.815 503.82,-106.5 518.662,-106.5C533.504,-106.5 545.839,-111.915 555.666,-122.746C565.494,-133.577 570.408,-145.51 570.408,-158.547C570.408,-171.584 565.695,-183.718 556.268,-194.95C546.841,-206.181 534.206,-211.797 518.361,-211.797C502.516,-211.797 489.68,-206.181 479.853,-194.95C470.025,-183.718 465.111,-171.483 465.111,-158.246Z" style="fill:white;fill-rule:nonzero;stroke:white;stroke-width:2.67px;"/>
                </g>
                <g transform="matrix(1,0,0,1,1266.18,857)">
                    <path d="M727.45,-413.365C727.45,-422.591 727.751,-429.511 728.353,-434.124C728.955,-438.737 730.66,-444.052 733.467,-450.069C739.083,-460.899 754.727,-466.314 780.4,-466.314C804.869,-466.314 820.112,-460.899 826.129,-450.069C829.338,-444.052 831.243,-438.636 831.845,-433.823C832.446,-429.009 832.747,-421.989 832.747,-412.763L832.747,-134.178C832.747,-119.738 833.951,-110.612 836.357,-106.801C838.764,-102.99 844.079,-101.085 852.302,-101.085C860.526,-101.085 866.041,-100.784 868.849,-100.182C871.657,-99.581 875.067,-97.876 879.078,-95.068C887.1,-89.853 891.112,-75.613 891.112,-52.348C891.112,-27.076 887.1,-11.633 879.078,-6.017C868.648,1.203 843.778,2.407 804.468,-2.407C773.58,-6.418 753.524,-16.647 744.298,-33.093C733.066,-52.749 727.45,-84.037 727.45,-126.958L727.45,-413.365Z" style="fill:white;fill-rule:nonzero;stroke:white;stroke-width:2.67px;"/>
                </g>
            </g>
            <g transform="matrix(1,0,0,1,992.465,425.317)">
                <g>
                    <g>
                        <clipPath id="_clip1">
                            <rect x="0" y="0" width="263.53" height="203.81"/>
                        </clipPath>
                        <g clip-path="url(#_clip1)">
                            <g id="Layer_2">
                                <g id="New_benui_logo_">
                                    <path id="Outline_BG" d="M244.25,46.85C240.42,46.41 236.08,45.92 231.49,45.74C230.2,45.68 229,45.66 227.8,45.66L225.58,45.66C220.91,45.79 216.58,46.08 212.37,46.55C203.787,47.424 195.345,49.362 187.24,52.32C179.031,55.314 171.456,59.822 164.91,65.61C162.871,67.448 160.96,69.422 159.19,71.52C151.964,48.879 135.316,30.419 113.54,20.9C98.7,14.43 83.27,12.4 68.35,10.44C55.09,8.7 42.56,7.05 33.24,2.44C24.054,-2.133 12.877,-0.116 5.87,7.38C1.701,11.892 -0.402,17.945 0.07,24.07L5.12,88.23C5.19,88.85 5.26,89.46 5.34,90.06C5.34,90.84 5.4,91.64 5.46,92.48L5.46,92.66C7.008,112.514 16.335,130.975 31.4,144C43.213,155.945 58.833,163.399 75.55,165.07L76.04,165.15C80.374,165.779 84.75,166.077 89.13,166.04C91.423,166.04 93.713,165.967 96,165.82L96,170.33C96.006,188.703 111.127,203.819 129.5,203.819C142.947,203.819 155.147,195.722 160.37,183.33C161.795,183.622 163.246,183.769 164.7,183.77C165.593,183.767 166.484,183.71 167.37,183.6L167.52,183.6C171.1,183.13 174.79,182.73 178.46,182.39C193.33,181.04 205.27,177.95 216.02,172.69C228.16,166.77 238.567,157.813 246.23,146.69C253.98,135.37 259.05,121.6 261.23,105.76C262.115,99.003 262.639,92.203 262.8,85.39L262.8,84.45C263.12,74.08 263.31,71.04 263.38,70.23C264.402,58.609 255.843,48.149 244.25,46.85Z" style="fill-rule:nonzero;"/>
                                    <path id="Small_Leaf" d="M242,66.72C238.51,66.32 234.55,65.87 230.68,65.72C229.07,65.65 227.58,65.64 226.12,65.72C222.03,65.83 218.26,66.09 214.61,66.5C207.668,67.188 200.839,68.736 194.28,71.11C188.404,73.23 182.977,76.432 178.28,80.55C173.65,84.76 169.995,89.931 167.57,95.7C164.796,102.581 163.275,109.903 163.08,117.32C163.02,118.61 162.99,119.95 162.99,121.32L162.99,162C162.988,162.493 163.2,162.964 163.57,163.29C163.877,163.567 164.276,163.72 164.69,163.72L164.92,163.72C168.78,163.22 172.73,162.78 176.64,162.42C189,161.3 198.72,158.83 207.22,154.67C216.255,150.289 224.006,143.647 229.72,135.39C235.72,126.64 239.66,115.73 241.46,102.97C242.241,96.932 242.702,90.857 242.84,84.77L242.84,83.85C242.93,80.85 243.21,71.85 243.48,68.56C243.557,67.655 242.9,66.839 242,66.72Z" style="fill:rgb(50,183,102);fill-rule:nonzero;"/>
                                    <path id="Large_Leaf" d="M142.67,94.39C142.82,71.81 128.55,49.23 105.54,39.26C80.24,28.26 48.2,32.26 24.31,20.34C22.37,19.34 19.86,20.62 20.01,22.5L25.01,86.16C25.09,86.94 25.19,87.7 25.3,88.44C25.41,89.18 25.3,90.21 25.4,91.1C26.589,105.973 33.688,119.768 45.1,129.38C54.095,138.78 66.306,144.459 79.29,145.28L79.29,145.39C91.656,146.935 104.213,145.635 116,141.59L116,170.31C116,177.716 122.094,183.81 129.5,183.81C136.906,183.81 143,177.716 143,170.31L143,97.31C142.998,96.327 142.887,95.348 142.67,94.39Z" style="fill:rgb(52,228,93);fill-rule:nonzero;"/>
                                    <path id="Large_Leaf_Gradient" d="M142.67,94.39C142.82,71.81 128.55,49.23 105.54,39.26C80.24,28.26 48.2,32.26 24.31,20.34C22.37,19.34 19.86,20.62 20.01,22.5L25.01,86.16C25.09,86.94 25.19,87.7 25.3,88.44C25.41,89.18 25.3,90.21 25.4,91.1C26.589,105.973 33.688,119.768 45.1,129.38C54.095,138.78 66.306,144.459 79.29,145.28L79.29,145.39C91.656,146.935 104.213,145.635 116,141.59L116,170.31C116,177.716 122.094,183.81 129.5,183.81C136.906,183.81 143,177.716 143,170.31L143,97.31C142.998,96.327 142.887,95.348 142.67,94.39Z" style="fill:url(#_Linear2);fill-rule:nonzero;"/>
                                </g>
                            </g>
                        </g>
                    </g>
                </g>
            </g>
        </g>
    </g>
    <defs>
        <linearGradient id="_Linear2" x1="0" y1="0" x2="1" y2="0" gradientUnits="userSpaceOnUse" gradientTransform="matrix(1.00305e-14,163.81,-163.81,1.00305e-14,81.5,20)"><stop offset="0" style="stop-color:rgb(80,255,132);stop-opacity:1"/><stop offset="1" style="stop-color:rgb(50,183,102);stop-opacity:1"/></linearGradient>
    </defs>
</svg>
